<svg width="71" height="37" viewBox="0 0 71 37" fill="none" xmlns="http://www.w3.org/2000/svg">
<path d="M70.646 20.4302C70.0409 13.0683 59.9772 7.79602 47.6127 8.01413C43.893 2.59646 34.3335 -0.747952 23.4606 0.143266C9.8672 1.26198 -0.621029 8.57232 0.0286221 16.469C0.633713 23.8309 10.6974 29.1056 23.0619 28.8874C26.7816 34.3051 36.3411 37.6472 47.214 36.756C60.8051 35.6373 71.2933 28.3293 70.646 20.4302ZM21.4624 22.8084C15.6109 21.5724 11.4151 18.4367 11.0891 14.4474C10.6224 8.76463 18.1673 3.50879 27.9402 2.70434C35.6023 2.07345 42.3592 4.36952 45.1454 8.12905C45.0516 8.13609 44.9578 8.14078 44.8616 8.14781C32.2345 9.18679 22.288 15.5708 21.4624 22.8084ZM41.0411 13.6218C42.1223 13.5327 46.3908 13.5796 46.3908 13.5796C46.3908 13.5796 44.3222 21.8327 29.6288 23.2821C27.8159 23.4604 26.0499 23.4158 24.3777 23.2563C25.6488 18.432 32.4924 14.3231 41.0411 13.6218ZM42.7321 34.1949C35.0699 34.8258 28.3131 32.5297 25.5269 28.7702C25.6207 28.7631 25.7145 28.7585 25.8106 28.7514C38.4378 27.7148 48.3843 21.3285 49.2098 14.0909C55.0637 15.3268 59.2571 18.4625 59.5855 22.4519C60.0499 28.1369 52.5073 33.3928 42.7321 34.1949Z" fill="black"/>
</svg>
